<svg width="45" height="39" viewBox="0 0 45 39" fill="none" xmlns="http://www.w3.org/2000/svg">
<path d="M12.7 23.15C14.9 23.15 16.65 23.85 17.95 25.25C19.25 26.55 19.9001 28.35 19.9001 30.65C19.9001 33.15 19.1 35.1 17.5 36.5C16 37.8 13.9 38.45 11.2 38.45C7.90005 38.45 5.30005 37.2 3.40005 34.7C1.50005 32.1 0.550049 28.45 0.550049 23.75C0.550049 19.35 1.50005 15.3 3.40005 11.6C5.40005 7.89997 8.30005 4.19997 12.1 0.499974C12.2 0.399975 12.35 0.349976 12.55 0.349976C12.85 0.349976 13.1 0.499977 13.3 0.799979C13.5 1.09997 13.5 1.34997 13.3 1.54998C8.40005 6.54997 5.95005 12.45 5.95005 19.25C5.95005 22.05 6.45005 24.1 7.45005 25.4C8.35005 23.9 10.1 23.15 12.7 23.15ZM37.3001 23.15C39.5001 23.15 41.2501 23.85 42.5501 25.25C43.8501 26.55 44.5 28.35 44.5 30.65C44.5 33.15 43.7 35.1 42.1 36.5C40.6 37.8 38.5 38.45 35.8 38.45C32.5 38.45 29.9001 37.2 28 34.7C26.1001 32.1 25.15 28.45 25.15 23.75C25.15 19.35 26.1001 15.3 28 11.6C30.0001 7.89997 32.9001 4.19997 36.7001 0.499974C36.8 0.399975 36.9501 0.349976 37.1501 0.349976C37.4501 0.349976 37.7 0.499977 37.9 0.799979C38.1 1.09997 38.1 1.34997 37.9 1.54998C33 6.54997 30.5501 12.45 30.5501 19.25C30.5501 22.05 31.0501 24.1 32.0501 25.4C32.9501 23.9 34.7001 23.15 37.3001 23.15Z" fill="white" fill-opacity="0.3"/>
<path d="M12.7 23.15C14.9 23.15 16.65 23.85 17.95 25.25C19.25 26.55 19.9001 28.35 19.9001 30.65C19.9001 33.15 19.1 35.1 17.5 36.5C16 37.8 13.9 38.45 11.2 38.45C7.90005 38.45 5.30005 37.2 3.40005 34.7C1.50005 32.1 0.550049 28.45 0.550049 23.75C0.550049 19.35 1.50005 15.3 3.40005 11.6C5.40005 7.89997 8.30005 4.19997 12.1 0.499974C12.2 0.399975 12.35 0.349976 12.55 0.349976C12.85 0.349976 13.1 0.499977 13.3 0.799979C13.5 1.09997 13.5 1.34997 13.3 1.54998C8.40005 6.54997 5.95005 12.45 5.95005 19.25C5.95005 22.05 6.45005 24.1 7.45005 25.4C8.35005 23.9 10.1 23.15 12.7 23.15ZM37.3001 23.15C39.5001 23.15 41.2501 23.85 42.5501 25.25C43.8501 26.55 44.5 28.35 44.5 30.65C44.5 33.15 43.7 35.1 42.1 36.5C40.6 37.8 38.5 38.45 35.8 38.45C32.5 38.45 29.9001 37.2 28 34.7C26.1001 32.1 25.15 28.45 25.15 23.75C25.15 19.35 26.1001 15.3 28 11.6C30.0001 7.89997 32.9001 4.19997 36.7001 0.499974C36.8 0.399975 36.9501 0.349976 37.1501 0.349976C37.4501 0.349976 37.7 0.499977 37.9 0.799979C38.1 1.09997 38.1 1.34997 37.9 1.54998C33 6.54997 30.5501 12.45 30.5501 19.25C30.5501 22.05 31.0501 24.1 32.0501 25.4C32.9501 23.9 34.7001 23.15 37.3001 23.15Z" fill="url(#paint0_linear_29_8779)"/>
<defs>
<linearGradient id="paint0_linear_29_8779" x1="42.5" y1="73" x2="14" y2="5.59336e-06" gradientUnits="userSpaceOnUse">
<stop stop-color="#D59647"/>
<stop offset="0.19" stop-color="#DBA868"/>
<stop offset="0.36" stop-color="#E0B580"/>
<stop offset="0.46" stop-color="#DAA35F"/>
<stop offset="0.54" stop-color="#D59647"/>
<stop offset="0.66" stop-color="#9A6830"/>
<stop offset="0.77" stop-color="#68421D"/>
<stop offset="0.91" stop-color="#D59647"/>
<stop offset="0.93" stop-color="#BD843E"/>
<stop offset="0.98" stop-color="#805426"/>
<stop offset="1" stop-color="#68421D"/>
</linearGradient>
</defs>
</svg>
