<svg width="256" height="298" fill="none" xmlns="http://www.w3.org/2000/svg"><g clip-path="url(#clip0_65_3428)" fill="#000" fill-opacity=".2"><path d="M193.906 126.959h-17.284c-1.12 0-2.195.444-2.987 1.235a4.213 4.213 0 00-1.237 2.981v13.797c0 1.118.445 2.19 1.237 2.98a4.227 4.227 0 002.987 1.235h17.284c1.12 0 2.195-.444 2.987-1.235a4.209 4.209 0 001.237-2.98v-13.797c0-1.118-.445-2.19-1.237-2.981a4.227 4.227 0 00-2.987-1.235zm-4.224 12.575v1.204h-8.835v-5.366h8.835v4.162zm31.868-12.575h-17.283a4.226 4.226 0 00-4.225 4.216v13.797a4.226 4.226 0 004.225 4.215h17.283a4.226 4.226 0 004.225-4.215v-13.797a4.226 4.226 0 00-4.225-4.216zm-4.224 13.797h-8.835v-5.366h8.835v5.366zm-23.42 12.73h-17.284c-1.12 0-2.195.445-2.987 1.235a4.213 4.213 0 00-1.237 2.981v13.803c0 1.118.445 2.19 1.237 2.981a4.23 4.23 0 002.987 1.234h17.284a4.23 4.23 0 002.987-1.234 4.213 4.213 0 001.237-2.981v-13.803c0-1.118-.445-2.19-1.237-2.981a4.232 4.232 0 00-2.987-1.235zm-4.224 13.803h-8.835v-5.372h8.835v5.372zm31.868-13.803h-17.283a4.23 4.23 0 00-2.987 1.235 4.214 4.214 0 00-1.238 2.981v13.803c0 1.118.446 2.19 1.238 2.981a4.229 4.229 0 002.987 1.234h17.283a4.229 4.229 0 002.987-1.234 4.21 4.21 0 001.238-2.981v-13.803a4.21 4.21 0 00-1.238-2.981 4.23 4.23 0 00-2.987-1.235zm-4.224 13.803h-8.835v-5.372h8.835v5.372zm-23.42 12.73h-17.284a4.23 4.23 0 00-2.987 1.234 4.213 4.213 0 00-1.237 2.981v13.797c0 1.118.445 2.19 1.237 2.981a4.23 4.23 0 002.987 1.234h17.284a4.23 4.23 0 002.987-1.234 4.213 4.213 0 001.237-2.981v-13.797c0-1.118-.445-2.19-1.237-2.981a4.23 4.23 0 00-2.987-1.234zm-4.224 13.796h-8.835v-5.365h8.835v5.365zm31.868-13.796h-17.283a4.229 4.229 0 00-2.987 1.234 4.214 4.214 0 00-1.238 2.981v13.797c0 1.118.446 2.19 1.238 2.981a4.229 4.229 0 002.987 1.234h17.283a4.229 4.229 0 002.987-1.234 4.21 4.21 0 001.238-2.981v-13.797a4.21 4.21 0 00-1.238-2.981 4.229 4.229 0 00-2.987-1.234zm-4.224 13.796h-8.835v-5.365h8.835v5.365zm-23.42 12.738h-17.284c-1.12 0-2.195.445-2.987 1.235a4.213 4.213 0 00-1.237 2.981v13.797c0 1.118.445 2.19 1.237 2.98a4.227 4.227 0 002.987 1.235h17.284c1.12 0 2.195-.444 2.987-1.235a4.209 4.209 0 001.237-2.98v-13.797c0-1.118-.445-2.19-1.237-2.981a4.232 4.232 0 00-2.987-1.235zm-4.224 13.797h-8.835v-5.366h8.835v5.366zm31.868-13.797h-17.283a4.23 4.23 0 00-2.987 1.235 4.214 4.214 0 00-1.238 2.981v13.797a4.226 4.226 0 004.225 4.215h17.283a4.226 4.226 0 004.225-4.215v-13.797a4.21 4.21 0 00-1.238-2.981 4.23 4.23 0 00-2.987-1.235zm-4.224 13.797h-8.835v-5.366h8.835v5.366zm-23.42 12.736h-17.284a4.23 4.23 0 00-2.987 1.234 4.213 4.213 0 00-1.237 2.981v13.797c0 1.118.445 2.19 1.237 2.981a4.232 4.232 0 002.987 1.235h17.284c1.12 0 2.195-.445 2.987-1.235a4.213 4.213 0 001.237-2.981v-13.797c0-1.118-.445-2.19-1.237-2.981a4.23 4.23 0 00-2.987-1.234zm-4.224 13.797h-8.835v-5.366h8.835v5.366zm31.868-13.797h-17.283a4.229 4.229 0 00-2.987 1.234 4.214 4.214 0 00-1.238 2.981v13.797c0 1.118.446 2.19 1.238 2.981a4.23 4.23 0 002.987 1.235h17.283a4.23 4.23 0 002.987-1.235 4.21 4.21 0 001.238-2.981v-13.797a4.21 4.21 0 00-1.238-2.981 4.229 4.229 0 00-2.987-1.234zm-4.224 13.797h-8.835v-5.366h8.835v5.366zM138.207 98.697h-34.036a4.227 4.227 0 00-2.987 1.235 4.208 4.208 0 00-1.238 2.981v10.147a4.21 4.21 0 001.238 2.981 4.23 4.23 0 002.987 1.235h34.036c1.12 0 2.195-.445 2.987-1.235a4.213 4.213 0 001.237-2.981v-10.147a4.212 4.212 0 00-1.237-2.981 4.229 4.229 0 00-2.987-1.235zm-4.225 10.148h-25.587v-1.717h25.587v1.717zm4.225 12.151h-34.036a4.226 4.226 0 00-2.987 1.235 4.21 4.21 0 00-1.238 2.981v10.147a4.21 4.21 0 001.238 2.981 4.226 4.226 0 002.987 1.235h34.036c1.12 0 2.195-.444 2.987-1.235a4.213 4.213 0 001.237-2.981v-10.147c0-1.118-.445-2.19-1.237-2.981a4.227 4.227 0 00-2.987-1.235zm-4.225 10.148h-25.587v-1.717h25.587v1.717zm4.225 12.158h-34.036a4.23 4.23 0 00-2.987 1.235 4.21 4.21 0 00-1.238 2.981v10.147a4.226 4.226 0 004.225 4.216h34.036c1.12 0 2.195-.444 2.987-1.235a4.211 4.211 0 001.237-2.981v-10.147c0-1.118-.445-2.19-1.237-2.981a4.232 4.232 0 00-2.987-1.235zm-4.225 10.148h-25.587v-1.716h25.587v1.716zm4.225 12.152h-34.036a4.229 4.229 0 00-2.987 1.234 4.21 4.21 0 00-1.238 2.981v10.147a4.226 4.226 0 004.225 4.216h34.036c1.12 0 2.195-.444 2.987-1.235a4.211 4.211 0 001.237-2.981v-10.147c0-1.118-.445-2.19-1.237-2.981a4.23 4.23 0 00-2.987-1.234zm-4.225 10.147h-25.587v-1.716h25.587v1.716zm4.225 12.154h-34.036a4.226 4.226 0 00-2.987 1.235 4.205 4.205 0 00-1.238 2.98v10.148a4.21 4.21 0 001.238 2.981 4.229 4.229 0 002.987 1.234h34.036a4.23 4.23 0 002.987-1.234 4.213 4.213 0 001.237-2.981v-10.148c0-1.118-.445-2.19-1.237-2.98a4.227 4.227 0 00-2.987-1.235zm-4.225 10.147h-25.587v-1.716h25.587v1.716zm4.225 12.152h-34.036a4.226 4.226 0 00-2.987 1.235 4.205 4.205 0 00-1.238 2.98v10.148a4.21 4.21 0 001.238 2.981 4.229 4.229 0 002.987 1.234h34.036a4.23 4.23 0 002.987-1.234 4.213 4.213 0 001.237-2.981v-10.148c0-1.118-.445-2.19-1.237-2.98a4.227 4.227 0 00-2.987-1.235zm-4.225 10.147h-25.587v-1.716h25.587v1.716zm4.225 11.599h-34.036a4.226 4.226 0 00-2.987 1.235 4.21 4.21 0 00-1.238 2.981v10.147a4.21 4.21 0 001.238 2.981 4.226 4.226 0 002.987 1.235h34.036c1.12 0 2.195-.444 2.987-1.235a4.213 4.213 0 001.237-2.981v-10.147c0-1.118-.445-2.19-1.237-2.981a4.227 4.227 0 00-2.987-1.235zm-4.225 10.148h-25.587v-1.717h25.587v1.717z"/><path d="M249.776 263.866h-11.895V116.323c0-1.118-.445-2.19-1.237-2.981a4.232 4.232 0 00-2.987-1.235h-4.225v-7.768a4.198 4.198 0 00-1.665-3.348c-3.018-10.238-14.719-17.94-28.659-17.94-13.941 0-25.636 7.678-28.659 17.94a4.205 4.205 0 00-1.666 3.348v7.768h-4.224a4.23 4.23 0 00-2.987 1.235 4.21 4.21 0 00-1.238 2.981v147.543h-5.636V87.657c0-1.118-.445-2.19-1.237-2.98a4.232 4.232 0 00-2.988-1.235h-4.827V71.735a4.21 4.21 0 00-1.238-2.981 4.227 4.227 0 00-2.987-1.235h-6.94V53.67a4.213 4.213 0 00-1.237-2.982 4.229 4.229 0 00-2.987-1.234h-2.16V5.913c0-1.119-.446-2.19-1.238-2.982a4.227 4.227 0 00-2.987-1.234h-5.316a4.227 4.227 0 00-2.987 1.235 4.208 4.208 0 00-1.238 2.98v43.54h-2.154a4.227 4.227 0 00-2.987 1.235 4.213 4.213 0 00-1.238 2.981V67.52h-6.946a4.23 4.23 0 00-2.987 1.235 4.211 4.211 0 00-1.237 2.98v11.708h-4.828a4.23 4.23 0 00-2.987 1.235 4.211 4.211 0 00-1.237 2.98v176.209h-6.035v-29.749a4.21 4.21 0 00-1.237-2.981 4.228 4.228 0 00-2.987-1.235H66.8V64.291a4.208 4.208 0 00-2.478-3.84 4.233 4.233 0 00-4.528.667l-42.54 37.144a4.218 4.218 0 00-1.441 3.174v128.447h-9.59a4.23 4.23 0 00-2.987 1.235A4.21 4.21 0 002 234.099v59.433c0 1.118.445 2.19 1.237 2.98a4.227 4.227 0 002.987 1.235h243.552a4.23 4.23 0 002.987-1.235 4.209 4.209 0 001.237-2.98v-25.474a4.21 4.21 0 00-1.246-2.966 4.228 4.228 0 00-2.978-1.226zM10.449 238.332h62.81v25.534h-62.81v-25.534zM245.55 289.34H10.449v-17.043H245.55v17.043zM96.167 91.873h50.046v171.993H96.167V91.873zm9.052-15.923h31.984v7.492h-31.984V75.95zm20.802-8.43h-9.656v-9.636h9.656v9.635zm42.738 52.994h60.686v143.328h-60.698l.012-143.328zm30.343-29.057c8.448 0 15.781 3.547 19.088 8.642h-38.176c3.295-5.083 10.603-8.63 19.076-8.63l.012-.012zM178.39 108.53h42.588v3.553h-43.752v-3.553h1.164zm-154.104-5.173l34.09-29.773v156.305H51.86V107.82h-8.448v122.081h-4.17V107.82h-8.45v122.081h-6.517l.012-126.544z"/></g><defs><clipPath id="clip0_65_3428"><path fill="#fff" transform="translate(0 .697)" d="M0 0h256v297H0z"/></clipPath></defs></svg>