<svg width="256" height="298" viewBox="0 0 256 298" fill="none" xmlns="http://www.w3.org/2000/svg">
<g clip-path="url(#clip0_65_3428)">
<path d="M193.906 126.959H176.622C175.502 126.959 174.427 127.403 173.635 128.194C172.843 128.985 172.398 130.057 172.398 131.175V144.972C172.398 146.09 172.843 147.162 173.635 147.952C174.427 148.743 175.502 149.187 176.622 149.187H193.906C195.026 149.187 196.101 148.743 196.893 147.952C197.685 147.162 198.13 146.09 198.13 144.972V131.175C198.13 130.057 197.685 128.985 196.893 128.194C196.101 127.403 195.026 126.959 193.906 126.959ZM189.682 139.534V140.738H180.847V135.372H189.682V139.534Z" fill="black" fill-opacity="0.2"/>
<path d="M221.55 126.959H204.267C203.146 126.959 202.072 127.403 201.28 128.194C200.488 128.985 200.042 130.057 200.042 131.175V144.972C200.042 146.09 200.488 147.162 201.28 147.952C202.072 148.743 203.146 149.187 204.267 149.187H221.55C222.671 149.187 223.745 148.743 224.537 147.952C225.33 147.162 225.775 146.09 225.775 144.972V131.175C225.775 130.057 225.33 128.985 224.537 128.194C223.745 127.403 222.671 126.959 221.55 126.959ZM217.326 140.756H208.491V135.39H217.326V140.756Z" fill="black" fill-opacity="0.2"/>
<path d="M193.906 153.486H176.622C175.502 153.486 174.427 153.931 173.635 154.721C172.843 155.512 172.398 156.584 172.398 157.702V171.505C172.398 172.623 172.843 173.695 173.635 174.486C174.427 175.276 175.502 175.72 176.622 175.72H193.906C195.026 175.72 196.101 175.276 196.893 174.486C197.685 173.695 198.13 172.623 198.13 171.505V157.702C198.13 156.584 197.685 155.512 196.893 154.721C196.101 153.931 195.026 153.486 193.906 153.486ZM189.682 167.289H180.847V161.917H189.682V167.289Z" fill="black" fill-opacity="0.2"/>
<path d="M221.55 153.486H204.267C203.146 153.486 202.072 153.931 201.28 154.721C200.488 155.512 200.042 156.584 200.042 157.702V171.505C200.042 172.623 200.488 173.695 201.28 174.486C202.072 175.276 203.146 175.72 204.267 175.72H221.55C222.671 175.72 223.745 175.276 224.537 174.486C225.33 173.695 225.775 172.623 225.775 171.505V157.702C225.775 156.584 225.33 155.512 224.537 154.721C223.745 153.931 222.671 153.486 221.55 153.486ZM217.326 167.289H208.491V161.917H217.326V167.289Z" fill="black" fill-opacity="0.2"/>
<path d="M193.906 180.019H176.622C175.502 180.019 174.427 180.463 173.635 181.253C172.843 182.044 172.398 183.116 172.398 184.234V198.031C172.398 199.149 172.843 200.221 173.635 201.012C174.427 201.802 175.502 202.246 176.622 202.246H193.906C195.026 202.246 196.101 201.802 196.893 201.012C197.685 200.221 198.13 199.149 198.13 198.031V184.234C198.13 183.116 197.685 182.044 196.893 181.253C196.101 180.463 195.026 180.019 193.906 180.019ZM189.682 193.815H180.847V188.45H189.682V193.815Z" fill="black" fill-opacity="0.2"/>
<path d="M221.55 180.019H204.267C203.146 180.019 202.072 180.463 201.28 181.253C200.488 182.044 200.042 183.116 200.042 184.234V198.031C200.042 199.149 200.488 200.221 201.28 201.012C202.072 201.802 203.146 202.246 204.267 202.246H221.55C222.671 202.246 223.745 201.802 224.537 201.012C225.33 200.221 225.775 199.149 225.775 198.031V184.234C225.775 183.116 225.33 182.044 224.537 181.253C223.745 180.463 222.671 180.019 221.55 180.019ZM217.326 193.815H208.491V188.45H217.326V193.815Z" fill="black" fill-opacity="0.2"/>
<path d="M193.906 206.553H176.622C175.502 206.553 174.427 206.998 173.635 207.788C172.843 208.579 172.398 209.651 172.398 210.769V224.566C172.398 225.684 172.843 226.756 173.635 227.546C174.427 228.337 175.502 228.781 176.622 228.781H193.906C195.026 228.781 196.101 228.337 196.893 227.546C197.685 226.756 198.13 225.684 198.13 224.566V210.769C198.13 209.651 197.685 208.579 196.893 207.788C196.101 206.998 195.026 206.553 193.906 206.553ZM189.682 220.35H180.847V214.984H189.682V220.35Z" fill="black" fill-opacity="0.2"/>
<path d="M221.55 206.553H204.267C203.146 206.553 202.072 206.998 201.28 207.788C200.488 208.579 200.042 209.651 200.042 210.769V224.566C200.042 225.684 200.488 226.756 201.28 227.546C202.072 228.337 203.146 228.781 204.267 228.781H221.55C222.671 228.781 223.745 228.337 224.537 227.546C225.33 226.756 225.775 225.684 225.775 224.566V210.769C225.775 209.651 225.33 208.579 224.537 207.788C223.745 206.998 222.671 206.553 221.55 206.553ZM217.326 220.35H208.491V214.984H217.326V220.35Z" fill="black" fill-opacity="0.2"/>
<path d="M193.906 233.086H176.622C175.502 233.086 174.427 233.53 173.635 234.32C172.843 235.111 172.398 236.183 172.398 237.301V251.098C172.398 252.216 172.843 253.288 173.635 254.079C174.427 254.869 175.502 255.314 176.622 255.314H193.906C195.026 255.314 196.101 254.869 196.893 254.079C197.685 253.288 198.13 252.216 198.13 251.098V237.301C198.13 236.183 197.685 235.111 196.893 234.32C196.101 233.53 195.026 233.086 193.906 233.086ZM189.682 246.883H180.847V241.517H189.682V246.883Z" fill="black" fill-opacity="0.2"/>
<path d="M221.55 233.086H204.267C203.146 233.086 202.072 233.53 201.28 234.32C200.488 235.111 200.042 236.183 200.042 237.301V251.098C200.042 252.216 200.488 253.288 201.28 254.079C202.072 254.869 203.146 255.314 204.267 255.314H221.55C222.671 255.314 223.745 254.869 224.537 254.079C225.33 253.288 225.775 252.216 225.775 251.098V237.301C225.775 236.183 225.33 235.111 224.537 234.32C223.745 233.53 222.671 233.086 221.55 233.086ZM217.326 246.883H208.491V241.517H217.326V246.883Z" fill="black" fill-opacity="0.2"/>
<path d="M138.207 98.6971H104.171C103.05 98.6971 101.976 99.1413 101.184 99.9319C100.391 100.722 99.9463 101.795 99.9463 102.913V113.06C99.9463 114.178 100.391 115.25 101.184 116.041C101.976 116.831 103.05 117.276 104.171 117.276H138.207C139.327 117.276 140.402 116.831 141.194 116.041C141.986 115.25 142.431 114.178 142.431 113.06V102.913C142.431 101.795 141.986 100.722 141.194 99.9319C140.402 99.1413 139.327 98.6971 138.207 98.6971ZM133.982 108.845H108.395V107.128H133.982V108.845Z" fill="black" fill-opacity="0.2"/>
<path d="M138.207 120.996H104.171C103.05 120.996 101.976 121.44 101.184 122.231C100.391 123.022 99.9463 124.094 99.9463 125.212V135.359C99.9463 136.477 100.391 137.549 101.184 138.34C101.976 139.131 103.05 139.575 104.171 139.575H138.207C139.327 139.575 140.402 139.131 141.194 138.34C141.986 137.549 142.431 136.477 142.431 135.359V125.212C142.431 124.094 141.986 123.022 141.194 122.231C140.402 121.44 139.327 120.996 138.207 120.996ZM133.982 131.144H108.395V129.427H133.982V131.144Z" fill="black" fill-opacity="0.2"/>
<path d="M138.207 143.302H104.171C103.05 143.302 101.976 143.747 101.184 144.537C100.391 145.328 99.9463 146.4 99.9463 147.518V157.665C99.9463 158.783 100.391 159.856 101.184 160.646C101.976 161.437 103.05 161.881 104.171 161.881H138.207C139.327 161.881 140.402 161.437 141.194 160.646C141.986 159.856 142.431 158.783 142.431 157.665V147.518C142.431 146.4 141.986 145.328 141.194 144.537C140.402 143.747 139.327 143.302 138.207 143.302ZM133.982 153.45H108.395V151.734H133.982V153.45Z" fill="black" fill-opacity="0.2"/>
<path d="M138.207 165.602H104.171C103.05 165.602 101.976 166.046 101.184 166.836C100.391 167.627 99.9463 168.699 99.9463 169.817V179.964C99.9463 181.082 100.391 182.155 101.184 182.945C101.976 183.736 103.05 184.18 104.171 184.18H138.207C139.327 184.18 140.402 183.736 141.194 182.945C141.986 182.155 142.431 181.082 142.431 179.964V169.817C142.431 168.699 141.986 167.627 141.194 166.836C140.402 166.046 139.327 165.602 138.207 165.602ZM133.982 175.749H108.395V174.033H133.982V175.749Z" fill="black" fill-opacity="0.2"/>
<path d="M138.207 187.903H104.171C103.05 187.903 101.976 188.347 101.184 189.138C100.391 189.928 99.9463 191 99.9463 192.118V202.266C99.9463 203.384 100.391 204.456 101.184 205.247C101.976 206.037 103.05 206.481 104.171 206.481H138.207C139.327 206.481 140.402 206.037 141.194 205.247C141.986 204.456 142.431 203.384 142.431 202.266V192.118C142.431 191 141.986 189.928 141.194 189.138C140.402 188.347 139.327 187.903 138.207 187.903ZM133.982 198.05H108.395V196.334H133.982V198.05Z" fill="black" fill-opacity="0.2"/>
<path d="M138.207 210.202H104.171C103.05 210.202 101.976 210.646 101.184 211.437C100.391 212.227 99.9463 213.299 99.9463 214.417V224.565C99.9463 225.683 100.391 226.755 101.184 227.546C101.976 228.336 103.05 228.78 104.171 228.78H138.207C139.327 228.78 140.402 228.336 141.194 227.546C141.986 226.755 142.431 225.683 142.431 224.565V214.417C142.431 213.299 141.986 212.227 141.194 211.437C140.402 210.646 139.327 210.202 138.207 210.202ZM133.982 220.349H108.395V218.633H133.982V220.349Z" fill="black" fill-opacity="0.2"/>
<path d="M138.207 231.948H104.171C103.05 231.948 101.976 232.392 101.184 233.183C100.391 233.974 99.9463 235.046 99.9463 236.164V246.311C99.9463 247.429 100.391 248.501 101.184 249.292C101.976 250.083 103.05 250.527 104.171 250.527H138.207C139.327 250.527 140.402 250.083 141.194 249.292C141.986 248.501 142.431 247.429 142.431 246.311V236.164C142.431 235.046 141.986 233.974 141.194 233.183C140.402 232.392 139.327 231.948 138.207 231.948ZM133.982 242.096H108.395V240.379H133.982V242.096Z" fill="black" fill-opacity="0.2"/>
<path d="M249.776 263.866H237.881V116.323C237.881 115.205 237.436 114.133 236.644 113.342C235.852 112.552 234.777 112.107 233.657 112.107H229.432V104.339C229.432 103.691 229.281 103.051 228.992 102.47C228.703 101.89 228.284 101.383 227.767 100.991C224.749 90.7528 213.048 83.0504 199.108 83.0504C185.167 83.0504 173.472 90.7287 170.449 100.991C169.932 101.383 169.512 101.89 169.224 102.47C168.935 103.051 168.784 103.691 168.783 104.339V112.107H164.559C163.438 112.107 162.364 112.552 161.572 113.342C160.779 114.133 160.334 115.205 160.334 116.323V263.866H154.698V87.6573C154.698 86.5393 154.253 85.4671 153.461 84.6765C152.668 83.886 151.594 83.4418 150.473 83.4418H145.646V71.7347C145.646 70.6167 145.201 69.5445 144.408 68.7539C143.616 67.9634 142.542 67.5192 141.421 67.5192H134.481V53.6682C134.481 52.5502 134.036 51.478 133.244 50.6874C132.452 49.8968 131.377 49.4527 130.257 49.4527H128.097V5.9123C128.097 4.79427 127.651 3.72206 126.859 2.9315C126.067 2.14094 124.993 1.69678 123.872 1.69678H118.556C117.435 1.69678 116.361 2.14094 115.569 2.9315C114.776 3.72206 114.331 4.79427 114.331 5.9123V49.4527H112.177C111.056 49.4527 109.982 49.8968 109.19 50.6874C108.398 51.478 107.952 52.5502 107.952 53.6682V67.5192H101.006C99.8861 67.5192 98.8116 67.9634 98.0194 68.7539C97.2272 69.5445 96.7821 70.6167 96.7821 71.7347V83.4418H91.9543C90.8339 83.4418 89.7595 83.886 88.9673 84.6765C88.1751 85.4671 87.73 86.5393 87.73 87.6573V263.866H81.6952V234.117C81.6952 232.999 81.2502 231.926 80.458 231.136C79.6657 230.345 78.5912 229.901 77.4709 229.901H66.8014V64.2914C66.8017 63.4814 66.5681 62.6884 66.1285 62.0074C65.689 61.3263 65.0622 60.7862 64.3231 60.4514C63.584 60.1166 62.7638 60.0014 61.9608 60.1195C61.1578 60.2377 60.4059 60.5842 59.795 61.1177L17.2559 98.2624C16.8027 98.6583 16.4395 99.1462 16.1907 99.6936C15.942 100.241 15.8134 100.835 15.8136 101.436V229.883H6.22434C5.10398 229.883 4.02952 230.327 3.23731 231.118C2.44509 231.908 2 232.981 2 234.099V293.532C2 294.65 2.44509 295.722 3.23731 296.512C4.02952 297.303 5.10398 297.747 6.22434 297.747H249.776C250.896 297.747 251.97 297.303 252.763 296.512C253.555 295.722 254 294.65 254 293.532V268.058C253.994 266.944 253.546 265.878 252.754 265.092C251.963 264.307 250.892 263.866 249.776 263.866ZM10.4487 238.332H73.2586V263.866H10.4487V238.332ZM245.551 289.34H10.4487V272.297H245.551V289.34ZM96.1666 91.8729H146.213V263.866H96.1666V91.8729ZM105.219 75.9503H137.203V83.4418H105.219V75.9503ZM126.021 67.5192H116.365V57.8837H126.021V67.5192ZM168.759 120.514H229.445V263.842H168.747L168.759 120.514ZM199.102 91.4574C207.55 91.4574 214.883 95.0045 218.19 100.099H180.014C183.309 95.0165 190.617 91.4694 199.09 91.4694L199.102 91.4574ZM178.39 108.53H220.978V112.083H177.226V108.53H178.39ZM24.2864 103.357L58.3769 73.5836V229.889H51.8593V107.82H43.4106V229.901H39.2406V107.82H30.7919V229.901H24.2744L24.2864 103.357Z" fill="black" fill-opacity="0.2"/>
</g>
<defs>
<clipPath id="clip0_65_3428">
<rect width="256" height="297" fill="white" transform="translate(0 0.696777)"/>
</clipPath>
</defs>
</svg>
